<?xml version="1.0" encoding="utf-8"?>
<!-- Generator: Adobe Illustrator 14.0.0, SVG Export Plug-In . SVG Version: 6.00 Build 43363)  -->
<!DOCTYPE svg PUBLIC "-//W3C//DTD SVG 1.1//EN" "http://www.w3.org/Graphics/SVG/1.1/DTD/svg11.dtd">
<svg version="1.1" id="Layer_1" xmlns="http://www.w3.org/2000/svg" xmlns:xlink="http://www.w3.org/1999/xlink" x="0px" y="0px"
	 width="57px" height="19px" viewBox="0 0 57 19" enable-background="new 0 0 57 19" xml:space="preserve">
<g>
	<path fill="#2E0605" d="M17.788,8.633l-7.756-6.016c-0.313-0.243-0.752-0.243-1.066,0L1.211,8.633
		c-0.38,0.294-0.449,0.841-0.154,1.22c0.294,0.38,0.841,0.45,1.22,0.154l1.156-0.897v5.73c0,0.953,0.771,1.725,1.725,1.725h8.681
		c0.95,0,1.719-0.768,1.725-1.715c0-0.002,0.002-0.006,0.002-0.01V9.11l1.155,0.896c0.38,0.296,0.925,0.226,1.22-0.154
		S18.167,8.927,17.788,8.633z M9.499,4.405l4.34,3.365v0.015c0.015,0,0.024,0.013,0.039,0.016l0.139,0.107
		c0.016,0.03,0.038,0.057,0.038,0.092v6.836c0,0.002,0,0.002,0,0.004c0,0.117-0.097,0.215-0.215,0.215H5.157
		c-0.117,0-0.213-0.098-0.214-0.215V7.998c0-0.033,0.022-0.059,0.038-0.088l0.145-0.113c0.012-0.002,0.02-0.014,0.032-0.014V7.772
		L9.499,4.405z"/>
</g>
<g>
	<path fill="#2E0605" d="M33.881,5.613L33.881,5.613h-2.824V3.879c0-0.166-0.067-0.329-0.185-0.446
		c-0.118-0.118-0.28-0.185-0.446-0.185H26.69c-0.166,0-0.329,0.067-0.447,0.185c-0.117,0.118-0.185,0.28-0.185,0.446v1.733h-2.823
		c-0.986,0-1.78,0.798-1.781,1.781v0v7.334c0,0.984,0.795,1.781,1.781,1.782h0h10.645c0.983,0,1.781-0.798,1.782-1.782V7.394
		C35.662,6.41,34.864,5.614,33.881,5.613z M33.879,15.149h-1.891c0.025-0.068,0.044-0.14,0.044-0.217V6.971h1.847
		c0.23,0,0.423,0.192,0.422,0.423v7.333C34.301,14.958,34.109,15.149,33.879,15.149z M22.812,7.395c0-0.231,0.191-0.423,0.424-0.423
		h1.849v7.961c0,0.077,0.019,0.148,0.044,0.217h-1.895c-0.231,0-0.422-0.191-0.423-0.422V7.395z M26.349,14.933V6.971h4.421v7.961
		c0,0.077,0.018,0.148,0.043,0.217h-4.508C26.33,15.081,26.349,15.01,26.349,14.933z M27.321,4.511h2.473v1.102h-2.473V4.511z"/>
</g>
<g>
	<path fill="#2E0605" d="M44.028,10.521h-1.785c-0.283,0-0.514-0.231-0.514-0.515v-5.63c0-0.281,0.23-0.513,0.516-0.514h5.902
		c0.284,0,0.516,0.233,0.516,0.514v2.516h-0.002v1.526h0.002v1.588c0,0.283-0.231,0.515-0.514,0.515h-0.809v1.529h0.809
		c1.129-0.001,2.042-0.915,2.043-2.043V8.418h0.007V6.892h-0.007V4.375c0-1.127-0.916-2.04-2.043-2.041l0,0h-5.906
		c-1.13,0-2.041,0.914-2.042,2.041v5.631c0,1.128,0.912,2.041,2.042,2.043l0,0h1.785V10.521z"/>
	<path fill="#2E0605" d="M52.869,6.891L52.869,6.891h-1.781v1.527h1.779c0.283,0,0.515,0.233,0.515,0.515v5.629
		c0,0.281-0.232,0.513-0.515,0.513h-5.904c-0.284,0-0.514-0.231-0.515-0.513v-2.514h0.001v-1.53h-0.001V8.933
		c0-0.284,0.23-0.515,0.516-0.515h0.807V6.891h-0.809c-1.131,0-2.042,0.916-2.043,2.041v0.002v1.585h-0.002v1.53h0.002v2.515
		c0,1.128,0.912,2.041,2.041,2.042l0,0h5.905c1.128,0,2.042-0.914,2.043-2.042v-5.63C54.91,7.805,53.995,6.894,52.869,6.891z"/>
</g>
</svg>
