<?xml version="1.0" encoding="utf-8"?>
<!-- Generator: Adobe Illustrator 16.0.0, SVG Export Plug-In . SVG Version: 6.00 Build 0)  -->
<!DOCTYPE svg PUBLIC "-//W3C//DTD SVG 1.1//EN" "http://www.w3.org/Graphics/SVG/1.1/DTD/svg11.dtd">
<svg version="1.1" id="Layer_1" xmlns="http://www.w3.org/2000/svg" xmlns:xlink="http://www.w3.org/1999/xlink" x="0px" y="0px"
	 width="57px" height="19px" viewBox="0 0 57 19" enable-background="new 0 0 57 19" xml:space="preserve">
<g>
	<path fill="#984645" d="M21.875,11.355c-0.553,0-1,0.447-1,1v3.582h-15v-12h6.584c0.553,0,1-0.447,1-1s-0.447-1-1-1H5.696
		c-1.007,0.001-1.82,0.814-1.821,1.821v12.358c0.001,1.008,0.816,1.819,1.821,1.819h15.358c1.006,0,1.819-0.813,1.82-1.819v-3.761
		C22.875,11.805,22.427,11.355,21.875,11.355z"/>
	<path fill="#984645" d="M21.054,1.938h-4.513c-0.553,0-1,0.447-1,1s0.447,1,1,1h2.67l-7.044,7.044
		c-0.391,0.392-0.391,1.023,0,1.414c0.391,0.392,1.023,0.392,1.414,0l7.293-7.293v3.171c0,0.553,0.447,1,1,1c0.553,0,1-0.447,1-1
		V3.759C22.874,2.754,22.062,1.938,21.054,1.938z"/>
</g>
<path fill="#984645" d="M49.375,11.355c-0.553,0-1,0.447-1,1v3.582h-15v-12h6.584c0.553,0,1-0.447,1-1s-0.447-1-1-1h-6.762
	c-1.008,0.001-1.82,0.814-1.822,1.821v12.358c0.002,1.008,0.816,1.819,1.822,1.819h15.357c1.006,0,1.819-0.813,1.819-1.819v-3.761
	C50.375,11.805,49.928,11.355,49.375,11.355z"/>
<path fill="#984645" d="M50.492,0H45.98c-0.554,0-1,0.447-1,1s0.446,1,1,1h2.67l-7.045,7.045c-0.392,0.391-0.392,1.023,0,1.414
	c0.391,0.391,1.022,0.391,1.414,0l7.293-7.294v3.171c0,0.553,0.446,1,1,1c0.553,0,1-0.447,1-1V1.821
	C52.312,0.816,51.5,0.001,50.492,0z"/>
</svg>
